<svg width="50" height="50" viewBox="0 0 50 50" fill="none" xmlns="http://www.w3.org/2000/svg">
<rect width="50" height="50" fill="white"/>
<path d="M5.144 42.92C4.38133 42.92 4 42.6773 4 42.192V42.036C4 41.724 4.32933 41.2733 4.988 40.684C5.64667 40.06 5.976 39.3667 5.976 38.604V10.316C5.976 9.55333 5.64667 8.87733 4.988 8.288C4.32933 7.664 4 7.196 4 6.884V6.728C4 6.24267 4.38133 6 5.144 6H12.164C12.9267 6 13.308 6.24267 13.308 6.728V22.256L27.608 8.028C28.1627 7.47333 28.7173 7.04 29.272 6.728C29.8613 6.38133 30.5547 6.208 31.352 6.208H37.852C38.6147 6.208 38.9613 6.48533 38.892 7.04C38.8227 7.56 38.3373 8.25333 37.436 9.12L23.404 22.984L38.32 40.424C39.152 41.3947 39.584 41.984 39.616 42.392C39.648 42.7733 39.2493 42.964 38.42 42.964H31.54C30.4307 42.964 29.4253 42.4267 28.524 41.352L16.276 26.624L13.308 29.436V38.604C13.308 39.3667 13.6373 40.06 14.296 40.684C14.9547 41.2733 15.284 41.724 15.284 42.036V42.192C15.284 42.6773 14.9027 42.92 14.14 42.92H5.144Z" fill="black"/>
<path d="M42.9943 43.44C41.8156 43.44 40.845 43.128 40.0823 42.504C39.3196 41.8453 38.9383 40.9267 38.9383 39.748C38.9383 38.5347 39.3196 37.616 40.0823 36.992C40.845 36.3333 41.8156 36.004 42.9943 36.004C44.1383 36.004 45.0916 36.3333 45.8543 36.992C46.617 37.616 46.9983 38.5347 46.9983 39.748C46.9983 40.9267 46.617 41.8453 45.8543 42.504C45.0916 43.128 44.1383 43.44 42.9943 43.44Z" fill="black"/>
</svg>
